{
  "accessors": [
    {
      "name": "great_white_shark_1_positions",
      "componentType": 5126,
      "count": 3132,
      "min": [
        -4.3626298904418945,
        -2.1993300914764404,
        -14.488441467285156
      ],
      "max": [
        4.3626298904418945,
        7.913421154022217,
        9.661935806274414
      ],
      "type": "VEC3",
      "bufferView": 0,
      "byteOffset": 0
    },
    {
      "name": "great_white_shark_1_texcoords",
      "componentType": 5126,
      "count": 3132,
      "min": [
        0.001306000049225986,
        2.001168966293335
      ],
      "max": [
        0.9993569850921631,
        3
      ],
      "type": "VEC2",
      "bufferView": 1,
      "byteOffset": 0
    },
    {
      "name": "great_white_shark_1_0_indices",
      "componentType": 5123,
      "count": 16029,
      "min": [
        0
      ],
      "max": [
        3131
      ],
      "type": "SCALAR",
      "bufferView": 2,
      "byteOffset": 0
    },
    {
      "name": "Teath_1_positions",
      "componentType": 5126,
      "count": 1281,
      "min": [
        -1.0039819478988647,
        0.8811060190200806,
        6.765535831451416
      ],
      "max": [
        1.1075960397720337,
        1.463088035583496,
        8.250190734863281
      ],
      "type": "VEC3",
      "bufferView": 0,
      "byteOffset": 37584
    },
    {
      "name": "Teath_1_texcoords",
      "componentType": 5126,
      "count": 1281,
      "min": [
        0.0004990000161342323,
        2.0033349990844727
      ],
      "max": [
        0.9972699880599976,
        3.0005099773406982
      ],
      "type": "VEC2",
      "bufferView": 1,
      "byteOffset": 25056
    },
    {
      "name": "Teath_1_0_indices",
      "componentType": 5123,
      "count": 3738,
      "min": [
        0
      ],
      "max": [
        1280
      ],
      "type": "SCALAR",
      "bufferView": 2,
      "byteOffset": 32060
    },
    {
      "name": "eyes_1_positions",
      "componentType": 5126,
      "count": 321,
      "min": [
        -1.289654016494751,
        2.1681699752807617,
        7.536252021789551
      ],
      "max": [
        1.2896239757537842,
        2.5038681030273438,
        7.865724086761475
      ],
      "type": "VEC3",
      "bufferView": 0,
      "byteOffset": 52956
    },
    {
      "name": "eyes_1_texcoords",
      "componentType": 5126,
      "count": 321,
      "min": [
        -0.036166999489068985,
        2.0033040046691895
      ],
      "max": [
        0.9963510036468506,
        2.998853921890259
      ],
      "type": "VEC2",
      "bufferView": 1,
      "byteOffset": 35304
    },
    {
      "name": "eyes_1_0_indices",
      "componentType": 5123,
      "count": 1728,
      "min": [
        0
      ],
      "max": [
        320
      ],
      "type": "SCALAR",
      "bufferView": 2,
      "byteOffset": 39536
    }
  ],
  "asset": {
    "generator": "obj2gltf",
    "version": "2.0"
  },
  "buffers": [
    {
      "name": "Shark",
      "byteLength": 137672,
      "uri": "data:application/octet-stream;base64,"
    }
  ],
  "bufferViews": [
    {
      "name": "bufferView_0",
      "buffer": 0,
      "byteLength": 56808,
      "byteOffset": 0,
      "byteStride": 12,
      "target": 34962
    },
    {
      "name": "bufferView_1",
      "buffer": 0,
      "byteLength": 37872,
      "byteOffset": 56808,
      "byteStride": 8,
      "target": 34962
    },
    {
      "name": "bufferView_2",
      "buffer": 0,
      "byteLength": 42992,
      "byteOffset": 94680,
      "target": 34963
    }
  ],
  "materials": [
    {
      "name": "_Sharkgreatwhiteshark",
      "pbrMetallicRoughness": {
        "baseColorFactor": [
          0.5,
          0.5,
          0.5,
          1
        ],
        "metallicFactor": 0,
        "roughnessFactor": 1
      },
      "emissiveFactor": [
        0,
        0,
        0
      ],
      "alphaMode": "OPAQUE",
      "doubleSided": false
    },
    {
      "name": "_Sharkgreatwhiteshark_teet",
      "pbrMetallicRoughness": {
        "baseColorFactor": [
          0.5,
          0.5,
          0.5,
          1
        ],
        "metallicFactor": 0,
        "roughnessFactor": 1
      },
      "emissiveFactor": [
        0,
        0,
        0
      ],
      "alphaMode": "OPAQUE",
      "doubleSided": false
    },
    {
      "name": "_Sharkgreatwhiteshark_eye",
      "pbrMetallicRoughness": {
        "baseColorFactor": [
          0.5,
          0.5,
          0.5,
          1
        ],
        "metallicFactor": 0,
        "roughnessFactor": 1
      },
      "emissiveFactor": [
        0,
        0,
        0
      ],
      "alphaMode": "OPAQUE",
      "doubleSided": false
    }
  ],
  "meshes": [
    {
      "name": "great_white_shark_1",
      "primitives": [
        {
          "attributes": {
            "POSITION": 0,
            "TEXCOORD_0": 1
          },
          "indices": 2,
          "material": 0,
          "mode": 4
        }
      ]
    },
    {
      "name": "Teath_1",
      "primitives": [
        {
          "attributes": {
            "POSITION": 3,
            "TEXCOORD_0": 4
          },
          "indices": 5,
          "material": 1,
          "mode": 4
        }
      ]
    },
    {
      "name": "eyes_1",
      "primitives": [
        {
          "attributes": {
            "POSITION": 6,
            "TEXCOORD_0": 7
          },
          "indices": 8,
          "material": 2,
          "mode": 4
        }
      ]
    }
  ],
  "nodes": [
    {
      "name": "great_white_shark",
      "mesh": 0
    },
    {
      "name": "Teath",
      "mesh": 1
    },
    {
      "name": "eyes",
      "mesh": 2
    }
  ],
  "scene": 0,
  "scenes": [
    {
      "nodes": [
        0,
        1,
        2
      ]
    }
  ]
}
